<svg width="1080" height="1080" viewBox="0 0 1080 1080" fill="none" xmlns="http://www.w3.org/2000/svg">
<mask id="path-1-inside-1_301_2" fill="white">
<path d="M195.086 184.996C195.086 173.95 204.04 164.996 215.086 164.996H585.086C596.132 164.996 605.086 173.95 605.086 184.996V554.996C605.086 566.042 596.132 574.996 585.086 574.996H215.086C204.04 574.996 195.086 566.042 195.086 554.996V184.996Z"/>
</mask>
<path d="M215.086 234.996H585.086V94.9961H215.086V234.996ZM535.086 184.996V554.996H675.086V184.996H535.086ZM585.086 504.996H215.086V644.996H585.086V504.996ZM265.086 554.996V184.996H125.086V554.996H265.086ZM215.086 504.996C242.7 504.996 265.086 527.382 265.086 554.996H125.086C125.086 604.702 165.381 644.996 215.086 644.996V504.996ZM535.086 554.996C535.086 527.382 557.472 504.996 585.086 504.996V644.996C634.792 644.996 675.086 604.702 675.086 554.996H535.086ZM585.086 234.996C557.472 234.996 535.086 212.61 535.086 184.996H675.086C675.086 135.29 634.792 94.9961 585.086 94.9961V234.996ZM215.086 94.9961C165.381 94.9961 125.086 135.29 125.086 184.996H265.086C265.086 212.61 242.7 234.996 215.086 234.996V94.9961Z" fill="#7B1FF3" mask="url(#path-1-inside-1_301_2)"/>
<mask id="path-3-inside-2_301_2" fill="white">
<path d="M531 185C531 173.954 539.954 165 551 165H861C872.046 165 881 173.954 881 185V555C881 566.046 872.046 575 861 575H551C539.954 575 531 566.046 531 555V185Z"/>
</mask>
<path d="M461 185C461 135.294 501.294 95 551 95H791C840.706 95 881 135.294 881 185V235C881 235 872.046 235 861 235H601L461 185ZM881 555C881 604.706 840.706 645 791 645H551C501.294 645 461 604.706 461 555L601 505H861C872.046 505 881 505 881 505V555ZM551 645C501.294 645 461 604.706 461 555V185C461 135.294 501.294 95 551 95L601 235V505L551 645ZM881 165V575V165Z" fill="#7B1FF3" mask="url(#path-3-inside-2_301_2)"/>
<mask id="path-5-inside-3_301_2" fill="white">
<path d="M195 525C195 513.954 203.954 505 215 505H585C596.046 505 605 513.954 605 525V895C605 906.046 596.046 915 585 915H215C203.954 915 195 906.046 195 895V525Z"/>
</mask>
<path d="M125 525C125 475.294 165.294 435 215 435H585C634.706 435 675 475.294 675 525L535 575H265L125 525ZM605 915H195H605ZM215 915C165.294 915 125 874.706 125 825V525C125 475.294 165.294 435 215 435L265 575V895C265 906.046 265 915 265 915H215ZM585 435C634.706 435 675 475.294 675 525V825C675 874.706 634.706 915 585 915H535C535 915 535 906.046 535 895V575L585 435Z" fill="#7B1FF3" mask="url(#path-5-inside-3_301_2)"/>
</svg>
