<svg xmlns="http://www.w3.org/2000/svg" viewBox="0 0 511.16 220.48" id="barbells"><g data-name="Layer 2"><g data-name="5554 - Barbells"><path d="M481.12 140.29H451.05a10 10 0 010-20h30.07a10.05 10.05 0 000-20.1H451.05a10 10 0 010-20h30.07a30.05 30.05 0 010 60.1zM350.81 140.29H160.36a10 10 0 010-20H350.81a10 10 0 110 20zM350.81 100.19H160.36a10 10 0 010-20H350.81a10 10 0 010 20zM60.12 140.29H30.05a30.05 30.05 0 110-60.1H60.12a10 10 0 110 20H30.05a10.07 10.07 0 00-10 10 10.06 10.06 0 0010.05 10.05H60.12a10 10 0 110 20z"></path><path d="M85.18,190.4a35.09,35.09,0,0,1-35.06-35.05V65.13a35.06,35.06,0,1,1,70.12,0v90.22A35.09,35.09,0,0,1,85.18,190.4Zm0-140.33A15.08,15.08,0,0,0,70.12,65.13v90.22a15.06,15.06,0,0,0,30.12,0V65.13A15.08,15.08,0,0,0,85.18,50.07Z"></path><path d="M135.3 220.48a35.1 35.1 0 01-35.06-35.06V35.06a35.06 35.06 0 1170.12 0V185.42A35.1 35.1 0 01135.3 220.48zM135.3 20a15.08 15.08 0 00-15.06 15.06V185.42a15.06 15.06 0 1030.12 0V35.06A15.08 15.08 0 00135.3 20zM426 190.4a35.09 35.09 0 01-35.06-35.05V65.13a35.06 35.06 0 0170.12 0v90.22A35.09 35.09 0 01426 190.4zm0-140.33a15.08 15.08 0 00-15.06 15.06v90.22a15.06 15.06 0 0030.12 0V65.13A15.08 15.08 0 00426 50.07z"></path><path d="M375.87,220.48a35.1,35.1,0,0,1-35.06-35.06V35.06a35.06,35.06,0,1,1,70.12,0V185.42A35.1,35.1,0,0,1,375.87,220.48Zm0-200.48a15.08,15.08,0,0,0-15.06,15.06V185.42a15.06,15.06,0,0,0,30.12,0V35.06A15.08,15.08,0,0,0,375.87,20Z"></path></g></g></svg>