<svg xmlns="http://www.w3.org/2000/svg" viewBox="0 0 510.98 471.07" id="body-builder"><g data-name="Layer 2"><g data-name="5557 - Body Builder"><path d="M366.27 230.12a31 31 0 01-6-.6l-8.12-1.62A31 31 0 01332.66 215c-13.37-19.28-35.32-16.26-36.24-16.12a9.91 9.91 0 01-9.87-4.34l-3.08-4.63c-4.13-6.18-11.31-21-12-37.31a10 10 0 0120-.89c.49 10.95 5.37 22 8.59 26.94 11.18-.09 33.73 2.8 49.09 24.95a11.14 11.14 0 006.93 4.69l8.12 1.62a10.8 10.8 0 008.76-2.07 50 50 0 0151.85-6l12.35 5.7a10 10 0 01-8.38 18.16L416.37 220a30.13 30.13 0 00-31.2 3.59A30.78 30.78 0 01366.27 230.12zM255.49 431a10 10 0 01-10-10V299.26a10 10 0 0120 0V421A10 10 0 01255.49 431z"></path><path d="M356.48,471.07h-202a10,10,0,0,1-8.94-14.47c.05-.09,6.74-14,13.46-47.61,5.29-26.46-7.2-61.8-11.93-73.8a46.67,46.67,0,0,1-29-29.71c-11.62,1.23-23,.12-39.52-1.47a43.32,43.32,0,0,1-19.83-7.08L14.32,269.07C.72,260.53-2.75,235.26,2,222.72l28.35-95.29a10,10,0,0,1,4.58-5.8L86.88,91.56a10,10,0,0,1,8.28-.8l29,10a10,10,0,0,1,6.74,9.64l-.76,40.09a10,10,0,0,1-6.84,9.3l-26.52,8.84L81.94,193.81l7.12,24.9a10,10,0,0,1-2.67,9.95L77,237.72a10,10,0,1,1-13.88-14.39l5.07-4.9-6.65-23.26a10,10,0,0,1,1-7.84l19-32.06a10,10,0,0,1,5.45-4.4l23.37-7.79.49-25.76L93,111.16,48.43,137,21.09,228.84c-.1.34-.22.67-.35,1-2.48,6,.71,20.1,4.21,22.29l44.56,27.95.28.18a23.22,23.22,0,0,0,10.73,3.85c21.34,2.07,31.29,2.87,43.31.22A10,10,0,0,1,136,293.37,26.63,26.63,0,0,0,156.08,317l.82.21a10,10,0,0,1,6.74,5.64c.93,2.08,22.69,51.57,15,90A338.8,338.8,0,0,1,169,451.07H342a341,341,0,0,1-9.67-38.16c-7.7-38.47,14.06-88,15-90a10,10,0,0,1,6.74-5.64l.85-.21A26.61,26.61,0,0,0,375,293.33a10,10,0,0,1,12.13-9c12,2.65,22,1.85,43.31-.22a23.25,23.25,0,0,0,10.74-3.85l.27-.18L486,252.12c3.49-2.19,6.68-16.33,4.2-22.29-.13-.32-.25-.65-.35-1L462.55,137,418,111.16l-17.84,6.16.49,25.76,23.37,7.79a10,10,0,0,1,5.44,4.4l19,32.06a10,10,0,0,1,1,7.84l-6.65,23.27,5.07,4.89A10,10,0,1,1,434,237.72l-9.4-9.06a10,10,0,0,1-2.67-9.95l7.12-24.9-14.86-25.15-26.53-8.84a10,10,0,0,1-6.84-9.3l-.76-40.09a10,10,0,0,1,6.74-9.64l29-10a10,10,0,0,1,8.27.8L476,121.63a10,10,0,0,1,4.58,5.8l28.35,95.29c4.79,12.54,1.33,37.81-12.28,46.34l-44.43,27.87A43.4,43.4,0,0,1,432.39,304c-16.5,1.59-27.9,2.7-39.52,1.47a46.65,46.65,0,0,1-29,29.71c-4.73,12-17.22,47.34-11.93,73.8,6.72,33.57,13.42,47.51,13.48,47.65a10,10,0,0,1-9,14.43Z"></path><path d="M144.71,230.12a30.8,30.8,0,0,1-18.9-6.49,30.1,30.1,0,0,0-31.2-3.58l-12.35,5.7a10,10,0,0,1-8.38-18.16l12.35-5.7a50,50,0,0,1,51.86,6,10.82,10.82,0,0,0,8.75,2.07l8.12-1.62a11.14,11.14,0,0,0,6.93-4.69c15.36-22.15,37.91-25,49.09-24.95a59.79,59.79,0,0,0,8.59-26.94,10,10,0,0,1,20,.89c-.73,16.31-7.91,31.13-12,37.31l-3.08,4.63a10,10,0,0,1-9.93,4.32c-.86-.12-22.81-3.14-36.18,16.14a31,31,0,0,1-19.44,12.9l-8.12,1.62A31,31,0,0,1,144.71,230.12Z"></path><path d="M255.49,170.36a55.17,55.17,0,0,1-55.11-55.11v-20a55.11,55.11,0,0,1,110.22,0v20A55.17,55.17,0,0,1,255.49,170.36Zm0-110.26a35.14,35.14,0,0,0-35.11,35.1v20a35.11,35.11,0,0,0,70.22,0v-20A35.14,35.14,0,0,0,255.49,60.1Z"></path><path d="M330.67,120.24H300.6a10,10,0,0,1,0-20h21l.64-6.46a67.1,67.1,0,1,0-133.54,0l.64,6.46h21a10,10,0,0,1,0,20H180.31a10,10,0,0,1-9.95-9l-1.54-15.46a87.11,87.11,0,1,1,173.35,0l-1.55,15.46A10,10,0,0,1,330.67,120.24Z"></path><path d="M255.49 130.26a19.89 19.89 0 01-14.16-5.86 10 10 0 0114.14-14.15l0 0a10 10 0 0114.16 14.13A19.89 19.89 0 01255.49 130.26zM280.55 330.74H230.43a30.08 30.08 0 01-30.05-30.05 10 10 0 0120 0 10.06 10.06 0 0010.05 10.05h50.12a10.06 10.06 0 0010.05-10.05 10 10 0 1120 0A30.08 30.08 0 01280.55 330.74zM280.55 380.86H230.43a30.08 30.08 0 01-30.05-30.05 10 10 0 0120 0 10.06 10.06 0 0010.05 10.05h50.12a10.06 10.06 0 0010.05-10.05 10 10 0 0120 0A30.08 30.08 0 01280.55 380.86zM280.55 431H230.43a30.08 30.08 0 01-30.05-30 10 10 0 1120 0 10.05 10.05 0 0010.05 10h50.12a10.05 10.05 0 0010.05-10 10 10 0 1120 0A30.08 30.08 0 01280.55 431z"></path></g></g></svg>