<svg xmlns="http://www.w3.org/2000/svg" viewBox="0 0 500.86 511.17" id="tire"><g data-name="Layer 2"><g data-name="5598 - Tire"><path d="M463.93,511.16h-427A37,37,0,0,1,0,474.23v-63.9A37,37,0,0,1,36.93,373.4h427a37,37,0,0,1,36.93,36.93v63.9A37,37,0,0,1,463.93,511.16ZM36.93,393.4A17,17,0,0,0,20,410.33v63.9a17,17,0,0,0,16.93,16.93h427a17,17,0,0,0,16.93-16.93v-63.9a17,17,0,0,0-16.93-16.93Z"></path><path d="M490.86 452.28H10a10 10 0 010-20H490.86a10 10 0 010 20zM49.25 413a10 10 0 01-8.94-14.47l9.81-19.63A10 10 0 0168 387.88L58.2 407.5A10 10 0 0149.25 413zM98.31 413a10 10 0 01-8.93-14.47l9.81-19.63a10 10 0 0117.89 8.95l-9.81 19.62A10 10 0 0198.31 413zM147.38 413a10 10 0 01-8.94-14.47l9.82-19.63a10 10 0 0117.89 8.95l-9.82 19.62A10 10 0 01147.38 413zM196.45 413a10 10 0 01-8.94-14.47l9.81-19.63a10 10 0 0117.89 8.95L205.4 407.5A10 10 0 01196.45 413zM245.52 413a10 10 0 01-8.94-14.47l9.81-19.63a10 10 0 1117.89 8.95l-9.81 19.62A10 10 0 01245.52 413zM294.58 413a10 10 0 01-8.93-14.47l9.81-19.63a10 10 0 1117.89 8.95l-9.82 19.62A10 10 0 01294.58 413zM343.65 413a10 10 0 01-8.94-14.47l9.82-19.63a10 10 0 0117.89 8.95L352.6 407.5A10 10 0 01343.65 413zM392.72 413a10 10 0 01-8.94-14.47l9.81-19.63a10 10 0 1117.89 8.95l-9.81 19.62A10 10 0 01392.72 413zM441.78 413a10 10 0 01-8.93-14.47l9.81-19.63a10 10 0 1117.89 8.95l-9.81 19.62A10 10 0 01441.78 413zM59.08 511.17a10 10 0 01-9-5.53L40.31 486a10 10 0 1117.89-8.94L68 496.69a10 10 0 01-8.93 14.48zM108.14 511.17a10 10 0 01-9-5.53L89.38 486a10 10 0 1117.89-8.94l9.81 19.62a10 10 0 01-8.94 14.48zM157.21 511.17a10 10 0 01-9-5.53L138.44 486a10 10 0 1117.89-8.94l9.82 19.62a10 10 0 01-4.48 13.42A9.91 9.91 0 01157.21 511.17zM206.28 511.17a10 10 0 01-9-5.53L187.51 486a10 10 0 1117.89-8.94l9.81 19.62a10 10 0 01-8.93 14.48zM255.34 511.17a10 10 0 01-9-5.53L236.58 486a10 10 0 1117.89-8.94l9.81 19.62a10 10 0 01-8.94 14.48zM304.41 511.17a10 10 0 01-9-5.53L285.65 486a10 10 0 1117.88-8.94l9.82 19.62a10 10 0 01-8.94 14.48zM353.48 511.17a10 10 0 01-9-5.53L334.71 486a10 10 0 1117.89-8.94l9.82 19.62a10 10 0 01-4.48 13.42A9.91 9.91 0 01353.48 511.17zM402.55 511.17a10 10 0 01-9-5.53L383.78 486a10 10 0 1117.89-8.94l9.81 19.62a10 10 0 01-8.93 14.48zM451.61 511.17a10 10 0 01-8.95-5.53L432.85 486a10 10 0 1117.89-8.94l9.81 19.62a10 10 0 01-8.94 14.48z"></path><path d="M245.52,393.4C137.2,393.4,49.07,305.27,49.07,197S137.2.49,245.52.49,442,88.62,442,197,353.85,393.4,245.52,393.4Zm0-372.91C148.23,20.49,69.07,99.65,69.07,197S148.23,373.4,245.52,373.4,422,294.25,422,197,342.82,20.49,245.52,20.49Z"></path><path d="M245.52,334.52C169.66,334.52,108,272.81,108,197S169.66,59.37,245.52,59.37,383.1,121.09,383.1,197,321.38,334.52,245.52,334.52Zm0-255.15A117.58,117.58,0,1,0,363.1,197,117.71,117.71,0,0,0,245.52,79.37Z"></path><path d="M245.52 236.39A39.44 39.44 0 11285 197 39.49 39.49 0 01245.52 236.39zm0-58.88A19.44 19.44 0 10265 197 19.46 19.46 0 00245.52 177.51zM245.51 39.67a10 10 0 01-10-10V10a10 10 0 0120 0V29.67A10 10 0 01245.51 39.67zM363.49 89a10 10 0 01-7.07-17.07L370.3 58a10 10 0 1114.14 14.14L370.56 86.05A10 10 0 01363.49 89zM432 207H412.35a10 10 0 010-20H432a10 10 0 010 20zM377.37 338.79a10 10 0 01-7.07-2.93L356.42 322a10 10 0 1114.14-14.14l13.88 13.88a10 10 0 01-7.07 17.07zM245.52 393.4a10 10 0 01-10-10V363.78a10 10 0 0120 0V383.4A10 10 0 01245.52 393.4zM113.68 338.79a10 10 0 01-7.07-17.07l13.88-13.88A10 10 0 11134.63 322l-13.88 13.88A10 10 0 01113.68 338.79zM78.69 207H59.07a10 10 0 110-20H78.69a10 10 0 010 20zM127.56 89a9.93 9.93 0 01-7.07-2.93L106.61 72.17A10 10 0 01120.75 58l13.88 13.88A10 10 0 01127.56 89z"></path><path d="M265.15 185a10 10 0 01-10-10V70.87a10 10 0 0120 0V175A10 10 0 01265.15 185zM225.9 185a10 10 0 01-10-10V70.87a10 10 0 0120 0V175A10 10 0 01225.9 185zM371.6 226.57H267.46a10 10 0 010-20H371.6a10 10 0 010 20z"></path><path d="M371.6 187.32H267.46a10 10 0 010-20H371.6a10 10 0 010 20zM225.9 333a10 10 0 01-10-10V218.88a10 10 0 0120 0V323A10 10 0 01225.9 333zM265.15 333a10 10 0 01-10-10V218.88a10 10 0 0120 0V323A10 10 0 01265.15 333zM223.59 187.32H119.45a10 10 0 110-20H223.59a10 10 0 010 20z"></path><path d="M223.59,226.57H119.45a10,10,0,1,1,0-20H223.59a10,10,0,0,1,0,20Z"></path></g></g></svg>